# Blender v3.0.0 OBJ File: ''
# www.blender.org
mtllib basemap_objets.mtl
o Cube.001_Cube.002
v 1.084786 -0.000127 2.837682
v 1.084786 1.212326 2.837682
v 1.084786 -0.000127 2.937682
v 1.084786 1.212326 2.937682
v 0.984786 -0.000127 2.837682
v 0.984786 1.212326 2.837682
v 0.984786 -0.000127 2.937682
v 0.984786 1.212326 2.937682
vt 0.625000 0.000000
vt 0.375000 0.250000
vt 0.375000 0.000000
vt 0.625000 0.250000
vt 0.375000 0.500000
vt 0.625000 0.500000
vt 0.375000 0.750000
vt 0.625000 0.750000
vt 0.375000 1.000000
vt 0.125000 0.750000
vt 0.125000 0.500000
vt 0.875000 0.500000
vt 0.625000 1.000000
vt 0.875000 0.750000
vn 1.0000 0.0000 0.0000
vn 0.0000 0.0000 1.0000
vn -1.0000 0.0000 0.0000
vn 0.0000 0.0000 -1.0000
vn 0.0000 -1.0000 0.0000
vn 0.0000 1.0000 0.0000
usemtl None
s off
f 2/1/1 3/2/1 1/3/1
f 4/4/2 7/5/2 3/2/2
f 8/6/3 5/7/3 7/5/3
f 6/8/4 1/9/4 5/7/4
f 7/5/5 1/10/5 3/11/5
f 4/12/6 6/8/6 8/6/6
f 2/1/1 4/4/1 3/2/1
f 4/4/2 8/6/2 7/5/2
f 8/6/3 6/8/3 5/7/3
f 6/8/4 2/13/4 1/9/4
f 7/5/5 5/7/5 1/10/5
f 4/12/6 2/14/6 6/8/6
o Cube.002_Cube.003
v -1.582873 -0.006458 2.869949
v -1.582873 1.205995 2.869949
v -1.582873 -0.006458 2.969949
v -1.582873 1.205995 2.969949
v -1.682873 -0.006458 2.869949
v -1.682873 1.205995 2.869949
v -1.682873 -0.006458 2.969949
v -1.682873 1.205995 2.969949
vt 0.625000 0.000000
vt 0.375000 0.250000
vt 0.375000 0.000000
vt 0.625000 0.250000
vt 0.375000 0.500000
vt 0.625000 0.500000
vt 0.375000 0.750000
vt 0.625000 0.750000
vt 0.375000 1.000000
vt 0.125000 0.750000
vt 0.125000 0.500000
vt 0.875000 0.500000
vt 0.625000 1.000000
vt 0.875000 0.750000
vn 1.0000 0.0000 0.0000
vn 0.0000 0.0000 1.0000
vn -1.0000 0.0000 0.0000
vn 0.0000 0.0000 -1.0000
vn 0.0000 -1.0000 0.0000
vn 0.0000 1.0000 0.0000
usemtl None
s off
f 10/15/7 11/16/7 9/17/7
f 12/18/8 15/19/8 11/16/8
f 16/20/9 13/21/9 15/19/9
f 14/22/10 9/23/10 13/21/10
f 15/19/11 9/24/11 11/25/11
f 12/26/12 14/22/12 16/20/12
f 10/15/7 12/18/7 11/16/7
f 12/18/8 16/20/8 15/19/8
f 16/20/9 14/22/9 13/21/9
f 14/22/10 10/27/10 9/23/10
f 15/19/11 13/21/11 9/24/11
f 12/26/12 10/28/12 14/22/12
o Cube.003_Cube.004
v 1.085207 -0.009476 1.788964
v 1.085207 1.202977 1.788964
v 1.085207 -0.009476 1.888964
v 1.085207 1.202977 1.888964
v 0.985207 -0.009476 1.788964
v 0.985207 1.202977 1.788964
v 0.985207 -0.009476 1.888964
v 0.985207 1.202977 1.888964
vt 0.625000 0.000000
vt 0.375000 0.250000
vt 0.375000 0.000000
vt 0.625000 0.250000
vt 0.375000 0.500000
vt 0.625000 0.500000
vt 0.375000 0.750000
vt 0.625000 0.750000
vt 0.375000 1.000000
vt 0.125000 0.750000
vt 0.125000 0.500000
vt 0.875000 0.500000
vt 0.625000 1.000000
vt 0.875000 0.750000
vn 1.0000 0.0000 0.0000
vn 0.0000 0.0000 1.0000
vn -1.0000 0.0000 0.0000
vn 0.0000 0.0000 -1.0000
vn 0.0000 -1.0000 0.0000
vn 0.0000 1.0000 0.0000
usemtl None
s off
f 18/29/13 19/30/13 17/31/13
f 20/32/14 23/33/14 19/30/14
f 24/34/15 21/35/15 23/33/15
f 22/36/16 17/37/16 21/35/16
f 23/33/17 17/38/17 19/39/17
f 20/40/18 22/36/18 24/34/18
f 18/29/13 20/32/13 19/30/13
f 20/32/14 24/34/14 23/33/14
f 24/34/15 22/36/15 21/35/15
f 22/36/16 18/41/16 17/37/16
f 23/33/17 21/35/17 17/38/17
f 20/40/18 18/42/18 22/36/18
o Cube.004_Cube.005
v -1.582452 -0.015808 1.821231
v -1.582452 1.196645 1.821231
v -1.582452 -0.015808 1.921231
v -1.582452 1.196645 1.921231
v -1.682452 -0.015808 1.821231
v -1.682452 1.196645 1.821231
v -1.682452 -0.015808 1.921231
v -1.682452 1.196645 1.921231
vt 0.625000 0.000000
vt 0.375000 0.250000
vt 0.375000 0.000000
vt 0.625000 0.250000
vt 0.375000 0.500000
vt 0.625000 0.500000
vt 0.375000 0.750000
vt 0.625000 0.750000
vt 0.375000 1.000000
vt 0.125000 0.750000
vt 0.125000 0.500000
vt 0.875000 0.500000
vt 0.625000 1.000000
vt 0.875000 0.750000
vn 1.0000 0.0000 0.0000
vn 0.0000 0.0000 1.0000
vn -1.0000 0.0000 0.0000
vn 0.0000 0.0000 -1.0000
vn 0.0000 -1.0000 0.0000
vn 0.0000 1.0000 0.0000
usemtl None
s off
f 26/43/19 27/44/19 25/45/19
f 28/46/20 31/47/20 27/44/20
f 32/48/21 29/49/21 31/47/21
f 30/50/22 25/51/22 29/49/22
f 31/47/23 25/52/23 27/53/23
f 28/54/24 30/50/24 32/48/24
f 26/43/19 28/46/19 27/44/19
f 28/46/20 32/48/20 31/47/20
f 32/48/21 30/50/21 29/49/21
f 30/50/22 26/55/22 25/51/22
f 31/47/23 29/49/23 25/52/23
f 28/54/24 26/56/24 30/50/24
o Cube.005_Cube.006
v 1.104930 1.171089 1.782797
v 1.104930 1.220346 1.782797
v 1.104930 1.171089 3.031105
v 1.104930 1.220346 3.031105
v -1.764835 1.171089 1.782797
v -1.764835 1.220346 1.782797
v -1.764835 1.171089 3.031105
v -1.764835 1.220346 3.031105
vt 0.625000 0.000000
vt 0.375000 0.250000
vt 0.375000 0.000000
vt 0.625000 0.250000
vt 0.375000 0.500000
vt 0.625000 0.500000
vt 0.375000 0.750000
vt 0.625000 0.750000
vt 0.375000 1.000000
vt 0.125000 0.750000
vt 0.125000 0.500000
vt 0.875000 0.500000
vt 0.625000 1.000000
vt 0.875000 0.750000
vn 1.0000 0.0000 0.0000
vn 0.0000 0.0000 1.0000
vn -1.0000 0.0000 0.0000
vn 0.0000 0.0000 -1.0000
vn 0.0000 -1.0000 0.0000
vn 0.0000 1.0000 0.0000
usemtl None
s off
f 34/57/25 35/58/25 33/59/25
f 36/60/26 39/61/26 35/58/26
f 40/62/27 37/63/27 39/61/27
f 38/64/28 33/65/28 37/63/28
f 39/61/29 33/66/29 35/67/29
f 36/68/30 38/64/30 40/62/30
f 34/57/25 36/60/25 35/58/25
f 36/60/26 40/62/26 39/61/26
f 40/62/27 38/64/27 37/63/27
f 38/64/28 34/69/28 33/65/28
f 39/61/29 37/63/29 33/66/29
f 36/68/30 34/70/30 38/64/30
o Icosphere
v -1.346234 0.951503 2.326334
v -1.551332 1.108183 2.177323
v -1.267895 1.108182 2.085227
v -1.092719 1.108184 2.326334
v -1.267895 1.108182 2.567441
v -1.551332 1.108183 2.475345
v -1.424573 1.361701 2.085227
v -1.141135 1.361701 2.177323
v -1.141135 1.361701 2.475345
v -1.424573 1.361701 2.567441
v -1.599749 1.361700 2.326334
v -1.346234 1.518381 2.326334
v -1.300187 0.993833 2.184616
v -1.466787 0.993834 2.238749
v -1.420741 1.085927 2.097029
v -1.587340 1.085928 2.326334
v -1.466787 0.993834 2.413920
v -1.197222 0.993834 2.326334
v -1.151174 1.085928 2.184616
v -1.300187 0.993833 2.468052
v -1.151174 1.085928 2.468053
v -1.420741 1.085927 2.555640
v -1.615800 1.234942 2.238748
v -1.615800 1.234942 2.413920
v -1.346234 1.234942 2.042896
v -1.512835 1.234942 2.097028
v -1.076667 1.234942 2.238748
v -1.179632 1.234942 2.097028
v -1.179632 1.234942 2.555641
v -1.076667 1.234942 2.413920
v -1.512835 1.234942 2.555641
v -1.346234 1.234942 2.609773
v -1.541293 1.383956 2.184616
v -1.271726 1.383956 2.097029
v -1.105127 1.383956 2.326334
v -1.271726 1.383956 2.555640
v -1.541293 1.383956 2.468053
v -1.392280 1.476050 2.184616
v -1.495246 1.476049 2.326334
v -1.225681 1.476050 2.238749
v -1.225681 1.476050 2.413920
v -1.392280 1.476050 2.468052
vt 0.181819 0.000000
vt 0.227273 0.078731
vt 0.136365 0.078731
vt 0.272728 0.157461
vt 0.318182 0.078731
vt 0.363637 0.157461
vt 0.909091 0.000000
vt 0.954545 0.078731
vt 0.863636 0.078731
vt 0.727273 0.000000
vt 0.772727 0.078731
vt 0.681818 0.078731
vt 0.545455 0.000000
vt 0.590909 0.078731
vt 0.500000 0.078731
vt 0.318182 0.236191
vt 0.090910 0.157461
vt 0.181819 0.157461
vt 0.136365 0.236191
vt 0.818182 0.157461
vt 0.909091 0.157461
vt 0.863636 0.236191
vt 0.636364 0.157461
vt 0.727273 0.157461
vt 0.681818 0.236191
vt 0.454546 0.157461
vt 0.545455 0.157461
vt 0.500000 0.236191
vt 0.227273 0.236191
vt 0.045455 0.236191
vt 0.772727 0.236191
vt 0.590909 0.236191
vt 0.409092 0.236191
vt 0.181819 0.314921
vt 0.272728 0.314921
vt 0.227273 0.393651
vt 0.000000 0.314921
vt 0.090910 0.314921
vt 0.045455 0.393651
vt 0.727273 0.314921
vt 0.818182 0.314921
vt 0.772727 0.393651
vt 0.545455 0.314921
vt 0.636364 0.314921
vt 0.590909 0.393651
vt 0.363637 0.314921
vt 0.454546 0.314921
vt 0.409092 0.393651
vt 0.500000 0.393651
vt 0.454546 0.472382
vt 0.681818 0.393651
vt 0.636364 0.472382
vt 0.863636 0.393651
vt 0.818182 0.472382
vt 0.909091 0.314921
vt 0.136365 0.393651
vt 0.090910 0.472382
vt 0.318182 0.393651
vt 0.272728 0.472382
vt 0.954545 0.236191
vt 1.000000 0.157461
vt 0.409092 0.078731
vt 0.363637 0.000000
vn -0.1024 -0.9435 -0.3151
vn -0.7002 -0.6617 -0.2680
vn 0.2680 -0.9435 -0.1947
vn 0.2680 -0.9435 0.1947
vn -0.1024 -0.9435 0.3151
vn -0.9050 -0.3304 -0.2680
vn -0.0247 -0.3304 -0.9435
vn 0.8897 -0.3304 -0.3151
vn 0.5746 -0.3304 0.7488
vn -0.5346 -0.3304 0.7779
vn -0.8026 -0.1256 -0.5831
vn 0.3066 -0.1256 -0.9435
vn 0.9921 -0.1256 0.0000
vn 0.3066 -0.1256 0.9435
vn -0.8026 -0.1256 0.5831
vn -0.4089 0.6617 -0.6284
vn 0.4713 0.6617 -0.5831
vn 0.7002 0.6617 0.2680
vn -0.0385 0.6617 0.7488
vn -0.7240 0.6617 0.1947
vn -0.2680 0.9435 0.1947
vn -0.4911 0.7947 0.3568
vn -0.4089 0.6617 0.6284
vn 0.1024 0.9435 0.3151
vn 0.1876 0.7947 0.5773
vn 0.4713 0.6617 0.5831
vn 0.3313 0.9435 0.0000
vn 0.6071 0.7947 0.0000
vn 0.7002 0.6617 -0.2680
vn 0.1024 0.9435 -0.3151
vn 0.1876 0.7947 -0.5773
vn -0.0385 0.6617 -0.7488
vn -0.2680 0.9435 -0.1947
vn -0.4911 0.7947 -0.3568
vn -0.7240 0.6617 -0.1947
vn -0.8897 0.3304 0.3151
vn -0.7947 0.1876 0.5773
vn -0.5746 0.3304 0.7488
vn 0.0247 0.3304 0.9435
vn 0.3035 0.1876 0.9342
vn 0.5346 0.3304 0.7779
vn 0.9050 0.3304 0.2680
vn 0.9822 0.1876 0.0000
vn 0.9050 0.3304 -0.2680
vn 0.5346 0.3304 -0.7779
vn 0.3035 0.1876 -0.9342
vn 0.0247 0.3304 -0.9435
vn -0.5746 0.3304 -0.7488
vn -0.7947 0.1876 -0.5773
vn -0.8897 0.3304 -0.3151
vn -0.3066 0.1256 0.9435
vn -0.3035 -0.1876 0.9342
vn -0.0247 -0.3304 0.9435
vn 0.8026 0.1256 0.5831
vn 0.7947 -0.1876 0.5773
vn 0.8897 -0.3304 0.3151
vn 0.8026 0.1256 -0.5831
vn 0.7947 -0.1876 -0.5773
vn 0.5746 -0.3304 -0.7488
vn -0.3066 0.1256 -0.9435
vn -0.3035 -0.1876 -0.9342
vn -0.5346 -0.3304 -0.7779
vn -0.9921 0.1256 0.0000
vn -0.9822 -0.1876 0.0000
vn -0.9050 -0.3304 0.2680
vn -0.4713 -0.6617 0.5831
vn -0.1876 -0.7947 0.5773
vn 0.0385 -0.6617 0.7488
vn 0.4089 -0.6617 0.6284
vn 0.4911 -0.7947 0.3568
vn 0.7240 -0.6617 0.1947
vn 0.7240 -0.6617 -0.1947
vn 0.4911 -0.7947 -0.3568
vn 0.4089 -0.6617 -0.6284
vn -0.7002 -0.6617 0.2680
vn -0.6071 -0.7947 0.0000
vn -0.3313 -0.9435 0.0000
vn 0.0385 -0.6617 -0.7488
vn -0.1876 -0.7947 -0.5773
vn -0.4713 -0.6617 -0.5831
usemtl None
s off
f 41/71/31 54/72/31 53/73/31
f 42/74/32 54/75/32 56/76/32
f 41/77/33 53/78/33 58/79/33
f 41/80/34 58/81/34 60/82/34
f 41/83/35 60/84/35 57/85/35
f 42/74/36 56/76/36 63/86/36
f 43/87/37 55/88/37 65/89/37
f 44/90/38 59/91/38 67/92/38
f 45/93/39 61/94/39 69/95/39
f 46/96/40 62/97/40 71/98/40
f 42/74/41 63/86/41 66/99/41
f 43/87/42 65/89/42 68/100/42
f 44/90/43 67/92/43 70/101/43
f 45/93/44 69/95/44 72/102/44
f 46/96/45 71/98/45 64/103/45
f 47/104/46 73/105/46 78/106/46
f 48/107/47 74/108/47 80/109/47
f 49/110/48 75/111/48 81/112/48
f 50/113/49 76/114/49 82/115/49
f 51/116/50 77/117/50 79/118/50
f 79/118/51 82/119/51 52/120/51
f 79/118/52 77/117/52 82/119/52
f 77/117/53 50/113/53 82/119/53
f 82/115/54 81/121/54 52/122/54
f 82/115/55 76/114/55 81/121/55
f 76/114/56 49/110/56 81/121/56
f 81/112/57 80/123/57 52/124/57
f 81/112/58 75/111/58 80/123/58
f 75/111/59 48/125/59 80/123/59
f 80/109/60 78/126/60 52/127/60
f 80/109/61 74/108/61 78/126/61
f 74/108/62 47/104/62 78/126/62
f 78/106/63 79/128/63 52/129/63
f 78/106/64 73/105/64 79/128/64
f 73/105/65 51/116/65 79/128/65
f 64/103/66 77/117/66 51/116/66
f 64/103/67 71/98/67 77/117/67
f 71/98/68 50/113/68 77/117/68
f 72/102/69 76/114/69 50/113/69
f 72/102/70 69/95/70 76/114/70
f 69/95/71 49/110/71 76/114/71
f 70/101/72 75/111/72 49/110/72
f 70/101/73 67/92/73 75/111/73
f 67/92/74 48/125/74 75/111/74
f 68/100/75 74/108/75 48/107/75
f 68/100/76 65/89/76 74/108/76
f 65/89/77 47/104/77 74/108/77
f 66/99/78 73/105/78 47/104/78
f 66/99/79 63/86/79 73/105/79
f 63/86/80 51/116/80 73/105/80
f 71/98/81 72/102/81 50/113/81
f 71/98/82 62/97/82 72/102/82
f 62/97/83 45/93/83 72/102/83
f 69/95/84 70/101/84 49/110/84
f 69/95/85 61/94/85 70/101/85
f 61/94/86 44/90/86 70/101/86
f 67/92/87 68/130/87 48/125/87
f 67/92/88 59/91/88 68/130/88
f 59/91/89 43/131/89 68/130/89
f 65/89/90 66/99/90 47/104/90
f 65/89/91 55/88/91 66/99/91
f 55/88/92 42/74/92 66/99/92
f 63/86/93 64/103/93 51/116/93
f 63/86/94 56/76/94 64/103/94
f 56/76/95 46/96/95 64/103/95
f 57/85/96 62/97/96 46/96/96
f 57/85/97 60/84/97 62/97/97
f 60/84/98 45/93/98 62/97/98
f 60/82/99 61/94/99 45/93/99
f 60/82/100 58/81/100 61/94/100
f 58/81/101 44/90/101 61/94/101
f 58/79/102 59/91/102 44/90/102
f 58/79/103 53/78/103 59/91/103
f 53/78/104 43/131/104 59/91/104
f 56/76/105 57/132/105 46/96/105
f 56/76/106 54/75/106 57/132/106
f 54/75/107 41/133/107 57/132/107
f 53/73/108 55/88/108 43/87/108
f 53/73/109 54/72/109 55/88/109
f 54/72/110 42/74/110 55/88/110
o Icosphere.001
v 0.398573 0.078192 0.175808
v 0.193475 0.234872 0.026797
v 0.476912 0.234872 -0.065299
v 0.652088 0.234873 0.175808
v 0.476912 0.234872 0.416915
v 0.193475 0.234872 0.324819
v 0.320234 0.488390 -0.065299
v 0.603672 0.488390 0.026797
v 0.603672 0.488390 0.324819
v 0.320234 0.488390 0.416915
v 0.145058 0.488389 0.175808
v 0.398573 0.645070 0.175808
v 0.444620 0.120523 0.034090
v 0.278021 0.120523 0.088222
v 0.324066 0.212617 -0.053497
v 0.157467 0.212617 0.175808
v 0.278021 0.120523 0.263394
v 0.547586 0.120523 0.175808
v 0.593633 0.212617 0.034089
v 0.444620 0.120523 0.317526
v 0.593633 0.212617 0.317526
v 0.324066 0.212617 0.405113
v 0.129007 0.361631 0.088222
v 0.129007 0.361631 0.263394
v 0.398573 0.361631 -0.107631
v 0.231972 0.361631 -0.053499
v 0.668140 0.361631 0.088222
v 0.565175 0.361631 -0.053499
v 0.565175 0.361631 0.405114
v 0.668140 0.361631 0.263394
v 0.231972 0.361631 0.405114
v 0.398573 0.361631 0.459247
v 0.203514 0.510645 0.034089
v 0.473081 0.510645 -0.053497
v 0.639680 0.510645 0.175808
v 0.473081 0.510645 0.405113
v 0.203514 0.510645 0.317526
v 0.352527 0.602739 0.034090
v 0.249561 0.602739 0.175808
v 0.519126 0.602739 0.088222
v 0.519126 0.602739 0.263394
v 0.352527 0.602739 0.317526
vt 0.181819 0.000000
vt 0.227273 0.078731
vt 0.136365 0.078731
vt 0.272728 0.157461
vt 0.318182 0.078731
vt 0.363637 0.157461
vt 0.909091 0.000000
vt 0.954545 0.078731
vt 0.863636 0.078731
vt 0.727273 0.000000
vt 0.772727 0.078731
vt 0.681818 0.078731
vt 0.545455 0.000000
vt 0.590909 0.078731
vt 0.500000 0.078731
vt 0.318182 0.236191
vt 0.090910 0.157461
vt 0.181819 0.157461
vt 0.136365 0.236191
vt 0.818182 0.157461
vt 0.909091 0.157461
vt 0.863636 0.236191
vt 0.636364 0.157461
vt 0.727273 0.157461
vt 0.681818 0.236191
vt 0.454546 0.157461
vt 0.545455 0.157461
vt 0.500000 0.236191
vt 0.227273 0.236191
vt 0.045455 0.236191
vt 0.772727 0.236191
vt 0.590909 0.236191
vt 0.409092 0.236191
vt 0.181819 0.314921
vt 0.272728 0.314921
vt 0.227273 0.393651
vt 0.000000 0.314921
vt 0.090910 0.314921
vt 0.045455 0.393651
vt 0.727273 0.314921
vt 0.818182 0.314921
vt 0.772727 0.393651
vt 0.545455 0.314921
vt 0.636364 0.314921
vt 0.590909 0.393651
vt 0.363637 0.314921
vt 0.454546 0.314921
vt 0.409092 0.393651
vt 0.500000 0.393651
vt 0.454546 0.472382
vt 0.681818 0.393651
vt 0.636364 0.472382
vt 0.863636 0.393651
vt 0.818182 0.472382
vt 0.909091 0.314921
vt 0.136365 0.393651
vt 0.090910 0.472382
vt 0.318182 0.393651
vt 0.272728 0.472382
vt 0.954545 0.236191
vt 1.000000 0.157461
vt 0.409092 0.078731
vt 0.363637 0.000000
vn -0.1024 -0.9435 -0.3151
vn -0.7002 -0.6617 -0.2680
vn 0.2680 -0.9435 -0.1947
vn 0.2680 -0.9435 0.1947
vn -0.1024 -0.9435 0.3151
vn -0.9050 -0.3304 -0.2680
vn -0.0247 -0.3304 -0.9435
vn 0.8897 -0.3304 -0.3151
vn 0.5746 -0.3304 0.7488
vn -0.5346 -0.3304 0.7779
vn -0.8026 -0.1256 -0.5831
vn 0.3066 -0.1256 -0.9435
vn 0.9921 -0.1256 0.0000
vn 0.3066 -0.1256 0.9435
vn -0.8026 -0.1256 0.5831
vn -0.4089 0.6617 -0.6284
vn 0.4713 0.6617 -0.5831
vn 0.7002 0.6617 0.2680
vn -0.0385 0.6617 0.7488
vn -0.7240 0.6617 0.1947
vn -0.2680 0.9435 0.1947
vn -0.4911 0.7947 0.3568
vn -0.4089 0.6617 0.6284
vn 0.1024 0.9435 0.3151
vn 0.1876 0.7947 0.5773
vn 0.4713 0.6617 0.5831
vn 0.3313 0.9435 0.0000
vn 0.6071 0.7947 0.0000
vn 0.7002 0.6617 -0.2680
vn 0.1024 0.9435 -0.3151
vn 0.1876 0.7947 -0.5773
vn -0.0385 0.6617 -0.7488
vn -0.2680 0.9435 -0.1947
vn -0.4911 0.7947 -0.3568
vn -0.7240 0.6617 -0.1947
vn -0.8897 0.3304 0.3151
vn -0.7947 0.1876 0.5773
vn -0.5746 0.3304 0.7488
vn 0.0247 0.3304 0.9435
vn 0.3035 0.1876 0.9342
vn 0.5346 0.3304 0.7779
vn 0.9050 0.3304 0.2680
vn 0.9822 0.1876 0.0000
vn 0.9050 0.3304 -0.2680
vn 0.5346 0.3304 -0.7779
vn 0.3035 0.1876 -0.9342
vn 0.0247 0.3304 -0.9435
vn -0.5746 0.3304 -0.7488
vn -0.7947 0.1876 -0.5773
vn -0.8897 0.3304 -0.3151
vn -0.3066 0.1256 0.9435
vn -0.3035 -0.1876 0.9342
vn -0.0247 -0.3304 0.9435
vn 0.8026 0.1256 0.5831
vn 0.7947 -0.1876 0.5773
vn 0.8897 -0.3304 0.3151
vn 0.8026 0.1256 -0.5831
vn 0.7947 -0.1876 -0.5773
vn 0.5746 -0.3304 -0.7488
vn -0.3066 0.1256 -0.9435
vn -0.3035 -0.1876 -0.9342
vn -0.5346 -0.3304 -0.7779
vn -0.9921 0.1256 0.0000
vn -0.9822 -0.1876 0.0000
vn -0.9050 -0.3304 0.2680
vn -0.4713 -0.6617 0.5831
vn -0.1876 -0.7947 0.5773
vn 0.0385 -0.6617 0.7488
vn 0.4089 -0.6617 0.6284
vn 0.4911 -0.7947 0.3568
vn 0.7240 -0.6617 0.1947
vn 0.7240 -0.6617 -0.1947
vn 0.4911 -0.7947 -0.3568
vn 0.4089 -0.6617 -0.6284
vn -0.7002 -0.6617 0.2680
vn -0.6071 -0.7947 0.0000
vn -0.3313 -0.9435 0.0000
vn 0.0385 -0.6617 -0.7488
vn -0.1876 -0.7947 -0.5773
vn -0.4713 -0.6617 -0.5831
usemtl None
s off
f 83/134/111 96/135/111 95/136/111
f 84/137/112 96/138/112 98/139/112
f 83/140/113 95/141/113 100/142/113
f 83/143/114 100/144/114 102/145/114
f 83/146/115 102/147/115 99/148/115
f 84/137/116 98/139/116 105/149/116
f 85/150/117 97/151/117 107/152/117
f 86/153/118 101/154/118 109/155/118
f 87/156/119 103/157/119 111/158/119
f 88/159/120 104/160/120 113/161/120
f 84/137/121 105/149/121 108/162/121
f 85/150/122 107/152/122 110/163/122
f 86/153/123 109/155/123 112/164/123
f 87/156/124 111/158/124 114/165/124
f 88/159/125 113/161/125 106/166/125
f 89/167/126 115/168/126 120/169/126
f 90/170/127 116/171/127 122/172/127
f 91/173/128 117/174/128 123/175/128
f 92/176/129 118/177/129 124/178/129
f 93/179/130 119/180/130 121/181/130
f 121/181/131 124/182/131 94/183/131
f 121/181/132 119/180/132 124/182/132
f 119/180/133 92/176/133 124/182/133
f 124/178/134 123/184/134 94/185/134
f 124/178/135 118/177/135 123/184/135
f 118/177/136 91/173/136 123/184/136
f 123/175/137 122/186/137 94/187/137
f 123/175/138 117/174/138 122/186/138
f 117/174/139 90/188/139 122/186/139
f 122/172/140 120/189/140 94/190/140
f 122/172/141 116/171/141 120/189/141
f 116/171/142 89/167/142 120/189/142
f 120/169/143 121/191/143 94/192/143
f 120/169/144 115/168/144 121/191/144
f 115/168/145 93/179/145 121/191/145
f 106/166/146 119/180/146 93/179/146
f 106/166/147 113/161/147 119/180/147
f 113/161/148 92/176/148 119/180/148
f 114/165/149 118/177/149 92/176/149
f 114/165/150 111/158/150 118/177/150
f 111/158/151 91/173/151 118/177/151
f 112/164/152 117/174/152 91/173/152
f 112/164/153 109/155/153 117/174/153
f 109/155/154 90/188/154 117/174/154
f 110/163/155 116/171/155 90/170/155
f 110/163/156 107/152/156 116/171/156
f 107/152/157 89/167/157 116/171/157
f 108/162/158 115/168/158 89/167/158
f 108/162/159 105/149/159 115/168/159
f 105/149/160 93/179/160 115/168/160
f 113/161/161 114/165/161 92/176/161
f 113/161/162 104/160/162 114/165/162
f 104/160/163 87/156/163 114/165/163
f 111/158/164 112/164/164 91/173/164
f 111/158/165 103/157/165 112/164/165
f 103/157/166 86/153/166 112/164/166
f 109/155/167 110/193/167 90/188/167
f 109/155/168 101/154/168 110/193/168
f 101/154/169 85/194/169 110/193/169
f 107/152/170 108/162/170 89/167/170
f 107/152/171 97/151/171 108/162/171
f 97/151/172 84/137/172 108/162/172
f 105/149/173 106/166/173 93/179/173
f 105/149/174 98/139/174 106/166/174
f 98/139/175 88/159/175 106/166/175
f 99/148/176 104/160/176 88/159/176
f 99/148/177 102/147/177 104/160/177
f 102/147/178 87/156/178 104/160/178
f 102/145/179 103/157/179 87/156/179
f 102/145/180 100/144/180 103/157/180
f 100/144/181 86/153/181 103/157/181
f 100/142/182 101/154/182 86/153/182
f 100/142/183 95/141/183 101/154/183
f 95/141/184 85/194/184 101/154/184
f 98/139/185 99/195/185 88/159/185
f 98/139/186 96/138/186 99/195/186
f 96/138/187 83/196/187 99/195/187
f 95/136/188 97/151/188 85/150/188
f 95/136/189 96/135/189 97/151/189
f 96/135/190 84/137/190 97/151/190
